<?xml version="1.0" ?><svg data-name="Layer 1" id="Layer_1" viewBox="0 0 64 64" xmlns="http://www.w3.org/2000/svg"><title/><path d="M41.43,40.48a1,1,0,0,0-.81,1.16A4.18,4.18,0,0,1,40.05,45a3.93,3.93,0,0,1-2.92,1.27h0a6.17,6.17,0,0,1-.75,0,14.5,14.5,0,0,1-4.82-1.09,28.08,28.08,0,0,1-7.34-4.35c-4.27-3.43-7.35-7.68-8-11.13,0-.11,0-.21-.05-.31h0a3.9,3.9,0,0,1,.61-3.14c1-1.24,2.84-1.37,4.22-1.25A1,1,0,0,0,22,24.08,1,1,0,0,0,21.1,23c-2.66-.22-4.71.46-5.94,2a5.79,5.79,0,0,0-1.05,4.48l-1.26,6.05h0L10.33,47.64v0L7.8,59.8a1,1,0,0,0,.35,1,1,1,0,0,0,.63.22,1,1,0,0,0,.41-.09L23.5,54.49h0l14-6.26a5.82,5.82,0,0,0,4.15-2,6,6,0,0,0,1-5A1,1,0,0,0,41.43,40.48Zm-30,11.72a21.92,21.92,0,0,0,2.21,4.53l-3.47,1.56Zm4.07,3.69a21.29,21.29,0,0,1-3.17-8L13.75,41a28.07,28.07,0,0,0,1.11,3.15,25.13,25.13,0,0,0,6.33,9.19Zm7.75-3.47a22.66,22.66,0,0,1-6.54-9,24.91,24.91,0,0,1-1.86-7.61l.5-2.4a27.83,27.83,0,0,0,7.6,9A30.12,30.12,0,0,0,30.82,47a19.47,19.47,0,0,0,2.57.82Z"/><path d="M28.11,14.17h0a1,1,0,0,0-1,1,36.5,36.5,0,0,1-5.84,18.28,1,1,0,1,0,1.67,1.11,38,38,0,0,0,6.17-19.4A1,1,0,0,0,28.11,14.17Z"/><path d="M26.41,36.64a1,1,0,0,0,.74-.33l8-8.87a1,1,0,0,0-1.49-1.33L25.66,35a1,1,0,0,0,.08,1.42A1,1,0,0,0,26.41,36.64Z"/><path d="M29.83,37.67a1,1,0,0,0,.69-.28,27.21,27.21,0,0,1,12.06-6.22,1,1,0,1,0-.4-2,28.86,28.86,0,0,0-13,6.73,1,1,0,0,0,0,1.42A1,1,0,0,0,29.83,37.67Z"/><path d="M32.73,40.61a1,1,0,0,0,0,1.41,1,1,0,0,0,.69.28,1,1,0,0,0,.72-.31c.22-.22,5.45-5.53,12.39-.11a1,1,0,0,0,1.23-1.58C39.45,33.79,32.79,40.54,32.73,40.61Z"/><path d="M25.44,10,24,12.89a1,1,0,0,0,1.36,1.33l2.84-1.49L30.5,15a1,1,0,0,0,.71.29,1.11,1.11,0,0,0,.46-.11,1,1,0,0,0,.52-1.06l-.53-3.15,2.83-1.49a1,1,0,0,0,.53-1,1,1,0,0,0-.84-.82L31,7.11,30.47,4a1,1,0,0,0-.84-.82,1,1,0,0,0-1,.54L27.17,6.54,24,6.08a1,1,0,0,0-1,.54,1,1,0,0,0,.2,1.16ZM27.6,8.63a1,1,0,0,0,1-.55L29,7.32l.14.84A1,1,0,0,0,30,9l.84.13-.75.39a1,1,0,0,0-.53,1.05l.15.84-.61-.59a1,1,0,0,0-.7-.29,1.12,1.12,0,0,0-.47.11l-.75.4.38-.76a1,1,0,0,0-.2-1.16l-.61-.6Z"/><path d="M32.46,19.15a4.06,4.06,0,0,0,2.94,4.93,4.27,4.27,0,0,0,1,.12,4.06,4.06,0,1,0-3.94-5.05Zm1.94.49a2.06,2.06,0,1,1,1.49,2.5A2.07,2.07,0,0,1,34.4,19.64Z"/><path d="M48,29.67a1,1,0,0,0,.86.49,1,1,0,0,0,.51-.14l3.78-2.25a1,1,0,0,0,.35-1.37L51.2,22.61a1,1,0,0,0-.62-.46.94.94,0,0,0-.75.11L46,24.52a1,1,0,0,0-.46.61,1.06,1.06,0,0,0,.11.76Zm2-5.18,1.23,2.07-2.07,1.23-1.23-2.07Z"/><path d="M53.48,35.07a3.6,3.6,0,0,0-2.74.4,3.63,3.63,0,0,0,1,6.63,3.94,3.94,0,0,0,.89.11,3.63,3.63,0,0,0,.89-7.14ZM54.17,39a1.62,1.62,0,1,1-1.58-2,1.83,1.83,0,0,1,.4,0A1.63,1.63,0,0,1,54.17,39Z"/><path d="M39.33,25.4a1,1,0,0,0-.07,1.41,1,1,0,0,0,.74.33,1,1,0,0,0,.67-.26,15.92,15.92,0,0,0,4.58-9.69,1,1,0,0,0-.9-1.1,1,1,0,0,0-1.1.89A14.19,14.19,0,0,1,39.33,25.4Z"/><path d="M41.73,35.66a1,1,0,0,0,.6-.2,14.05,14.05,0,0,1,9-2.19,1,1,0,0,0,.19-2,15.89,15.89,0,0,0-10.4,2.58,1,1,0,0,0-.21,1.4A1,1,0,0,0,41.73,35.66Z"/></svg>